<mxfile host="app.diagrams.net" modified="2022-04-10T00:58:50.684Z" agent="5.0 (Windows NT 10.0; Win64; x64) AppleWebKit/537.36 (KHTML, like Gecko) Chrome/96.0.4664.45 Safari/537.36" etag="jFMxQ7a6NgHepR8N975O" version="16.6.5" type="github">
  <diagram id="OHyPSjCy68gsxI-wNri1" name="第 1 页">
    <mxGraphModel dx="1422" dy="762" grid="1" gridSize="10" guides="1" tooltips="1" connect="1" arrows="1" fold="1" page="1" pageScale="1" pageWidth="827" pageHeight="1169" math="0" shadow="0">
      <root>
        <mxCell id="0" />
        <mxCell id="1" parent="0" />
        <mxCell id="xx09_448Wli5jbYRlQ8F-1" value="&lt;font style=&quot;font-size: 14px&quot;&gt;嵌入式程序&lt;/font&gt;" style="rounded=1;whiteSpace=wrap;html=1;" vertex="1" parent="1">
          <mxGeometry x="354" y="60" width="106" height="40" as="geometry" />
        </mxCell>
        <mxCell id="xx09_448Wli5jbYRlQ8F-2" value="构建嵌入式软件统一特征CS3LAC" style="rounded=1;whiteSpace=wrap;html=1;fontSize=14;" vertex="1" parent="1">
          <mxGeometry x="322.25" y="130" width="177.75" height="50" as="geometry" />
        </mxCell>
        <mxCell id="xx09_448Wli5jbYRlQ8F-3" value="CS3LAC特征表示的图嵌入模型" style="rounded=1;whiteSpace=wrap;html=1;fontSize=14;" vertex="1" parent="1">
          <mxGeometry x="322.25" y="220" width="177.75" height="50" as="geometry" />
        </mxCell>
        <mxCell id="xx09_448Wli5jbYRlQ8F-4" value="基于图嵌入和神经网络的漏洞检测模型" style="rounded=1;whiteSpace=wrap;html=1;fontSize=14;" vertex="1" parent="1">
          <mxGeometry x="322.25" y="310" width="177.75" height="50" as="geometry" />
        </mxCell>
      </root>
    </mxGraphModel>
  </diagram>
</mxfile>
